<svg width="1132" height="189" xmlns="http://www.w3.org/2000/svg" xmlns:xlink="http://www.w3.org/1999/xlink" xml:space="preserve" overflow="hidden"><defs><clipPath id="clip0"><rect x="823" y="70" width="1132" height="189"/></clipPath></defs><g clip-path="url(#clip0)" transform="translate(-823 -70)"><path d="M1753.12 174.066C1749.03 174.066 1745.26 175.048 1741.82 177.011 1738.38 178.974 1735.64 181.674 1733.59 185.11 1731.54 188.546 1730.52 192.474 1730.52 196.891 1730.52 203.763 1732.73 209.367 1737.15 213.703 1741.57 218.038 1746.98 220.207 1753.37 220.207 1757.46 220.207 1761.19 219.266 1764.55 217.385 1767.91 215.503 1770.57 212.763 1772.53 209.162 1774.5 205.562 1775.48 201.554 1775.48 197.136 1775.48 190.264 1773.35 184.701 1769.1 180.447 1764.84 176.193 1759.51 174.066 1753.12 174.066ZM1624.04 147.314C1611.1 147.314 1600.21 151.814 1591.36 160.813 1582.52 169.812 1578.09 181.92 1578.09 197.136 1578.09 212.19 1582.64 224.256 1591.73 233.338 1600.82 242.418 1611.55 246.959 1623.92 246.959 1636.29 246.959 1646.94 242.418 1655.86 233.338 1664.79 224.256 1669.25 212.149 1669.25 197.014 1669.25 181.879 1664.91 169.812 1656.23 160.813 1647.55 151.814 1636.82 147.314 1624.04 147.314ZM1117 147.314C1104.06 147.314 1093.16 151.814 1084.32 160.813 1075.47 169.812 1071.05 181.879 1071.05 197.014 1071.05 212.149 1075.6 224.256 1084.69 233.338 1093.78 242.418 1104.55 246.959 1117 246.959 1122.73 246.959 1128.34 245.814 1133.83 243.523 1139.32 241.231 1144.15 238.042 1148.33 233.952 1152.5 229.861 1155.86 224.584 1158.4 218.121 1160.94 211.657 1162.21 204.663 1162.21 197.136 1162.21 181.92 1157.83 169.812 1149.06 160.813 1140.3 151.814 1129.61 147.314 1117 147.314ZM882.434 147.314C869.493 147.314 858.6 151.814 849.754 160.813 840.908 169.812 836.486 181.92 836.486 197.136 836.486 212.19 841.031 224.256 850.123 233.338 859.214 242.418 869.943 246.959 882.312 246.959 894.68 246.959 905.327 242.418 914.254 233.338 923.182 224.256 927.646 212.149 927.646 197.014 927.646 181.879 923.305 169.812 914.623 160.813 905.941 151.814 895.211 147.314 882.434 147.314ZM1275.12 146.823C1264.8 146.823 1255.67 150.136 1247.73 156.763 1239.78 163.39 1234.58 172.184 1232.12 183.147L1313.46 183.147C1313.13 172.348 1309.4 163.594 1302.28 156.886 1295.15 150.177 1286.1 146.823 1275.12 146.823ZM963.108 137.252C963.927 137.252 964.705 137.415 965.442 137.742 966.179 138.069 966.835 138.52 967.408 139.092 967.981 139.665 968.432 140.36 968.759 141.178 969.087 141.997 969.25 142.978 969.25 144.123L969.25 211.371C969.25 235.587 979.735 247.695 1000.7 247.695 1011.84 247.695 1020.69 243.686 1027.24 235.669 1033.79 227.651 1037.07 217.179 1037.07 204.254L1037.07 144.123C1037.07 143.142 1037.23 142.201 1037.56 141.301 1037.89 140.401 1038.34 139.665 1038.91 139.092 1039.48 138.52 1040.14 138.069 1040.88 137.742 1041.61 137.415 1042.39 137.252 1043.21 137.252 1045.01 137.252 1046.49 137.865 1047.63 139.092 1048.78 140.319 1049.35 141.997 1049.35 144.123L1049.35 251.131C1049.35 252.931 1048.78 254.403 1047.63 255.549 1046.49 256.694 1045.14 257.266 1043.58 257.266 1042.02 257.266 1040.67 256.694 1039.53 255.549 1038.38 254.403 1037.81 252.931 1037.81 251.131L1037.81 231.251C1035.51 237.142 1032.44 242.091 1028.59 246.1 1024.74 250.108 1020.24 253.176 1015.08 255.303 1009.92 257.431 1004.22 258.494 998 258.494 989.809 258.494 982.724 256.898 976.745 253.709 970.766 250.517 965.975 245.363 962.371 238.246 958.767 231.128 956.965 222.252 956.965 211.617L956.965 144.123C956.965 141.997 957.538 140.319 958.685 139.092 959.832 137.865 961.306 137.252 963.108 137.252ZM1547.57 136.761C1551.67 136.761 1553.72 138.969 1553.72 143.387L1553.72 250.885C1553.72 255.303 1551.67 257.512 1547.57 257.512 1543.48 257.512 1541.43 255.303 1541.43 250.885L1541.43 143.387C1541.43 138.969 1543.48 136.761 1547.57 136.761ZM1200.37 136.761C1204.47 136.761 1206.52 138.969 1206.52 143.387L1206.52 250.885C1206.52 255.303 1204.47 257.512 1200.37 257.512 1196.28 257.512 1194.23 255.303 1194.23 250.885L1194.23 143.387C1194.23 138.969 1196.28 136.761 1200.37 136.761ZM1909 135.779C1923.42 135.779 1934.68 139.869 1942.79 148.051 1950.9 156.231 1954.95 168.339 1954.95 184.373L1954.95 233.705C1954.95 241.396 1952.86 247.367 1948.69 251.622 1944.51 255.876 1938.49 258.004 1930.63 258.004 1923.09 258.004 1917.15 255.917 1912.81 251.744 1908.47 247.573 1906.3 241.559 1906.3 233.705L1906.3 189.528C1906.3 185.438 1905.61 182.002 1904.21 179.22 1902.82 176.439 1900.98 174.434 1898.68 173.207 1896.39 171.98 1893.61 171.366 1890.33 171.366 1886.89 171.366 1883.9 172.103 1881.36 173.576 1878.82 175.048 1876.86 177.298 1875.46 180.324 1874.07 183.351 1873.38 186.991 1873.38 191.246L1873.13 191.246 1873.13 233.705C1873.13 241.396 1871.04 247.367 1866.86 251.622 1862.69 255.876 1856.67 258.004 1848.8 258.004 1841.27 258.004 1835.33 255.917 1830.99 251.744 1826.65 247.573 1824.48 241.559 1824.48 233.705L1824.48 160.568C1824.48 152.877 1826.49 146.905 1830.5 142.65 1834.51 138.397 1840.2 136.269 1847.58 136.269 1853.96 136.269 1859.17 137.987 1863.18 141.424 1867.19 144.86 1869.53 149.768 1870.18 156.15 1878.21 142.57 1891.15 135.779 1909 135.779ZM1753.12 135.779C1771.47 135.779 1787.11 141.628 1800.06 153.328 1813 165.026 1819.47 179.465 1819.47 196.645 1819.47 214.153 1813.16 228.838 1800.55 240.7 1787.93 252.562 1772.13 258.494 1753.12 258.494 1734.78 258.494 1719.13 252.481 1706.19 240.455 1693.25 228.429 1686.78 213.826 1686.78 196.645 1686.78 185.356 1689.77 175.048 1695.75 165.722 1701.73 156.395 1709.8 149.073 1719.95 143.755 1730.11 138.438 1741.17 135.779 1753.12 135.779ZM1622.32 135.779C1632.64 135.779 1641.94 138.233 1650.21 143.142 1658.48 148.051 1664.75 155.167 1669.01 164.494L1669.01 143.878C1669.01 139.46 1671.06 137.252 1675.15 137.252 1679.25 137.252 1681.3 139.46 1681.3 143.878L1681.3 249.904C1681.3 254.649 1679.25 257.021 1675.15 257.021 1671.06 257.021 1669.01 254.649 1669.01 249.904L1669.01 228.797C1664.75 238.123 1658.36 245.404 1649.84 250.64 1641.33 255.876 1632.15 258.494 1622.32 258.494 1612.82 258.494 1603.81 256.121 1595.29 251.376 1586.78 246.632 1579.69 239.474 1574.04 229.902 1568.39 220.33 1565.56 209.325 1565.56 196.891 1565.56 178.402 1571.13 163.594 1582.27 152.467 1593.41 141.342 1606.76 135.779 1622.32 135.779ZM1498.14 135.779C1508.62 135.779 1517.55 137.497 1524.92 140.932 1528.53 142.57 1530.33 144.86 1530.33 147.805 1530.33 148.623 1530.21 149.318 1529.96 149.891 1529.71 150.463 1529.39 150.955 1528.98 151.363 1528.57 151.773 1528.12 152.1 1527.63 152.345 1527.13 152.591 1526.64 152.714 1526.15 152.714 1525.66 152.714 1524.19 152.222 1521.73 151.241 1519.27 150.259 1515.99 149.318 1511.9 148.418 1507.8 147.519 1503.46 147.069 1498.88 147.069 1485.28 147.069 1473.85 151.65 1464.6 160.813 1455.34 169.975 1450.72 182.083 1450.72 197.136 1450.72 212.353 1455.43 224.502 1464.84 233.583 1474.26 242.664 1485.85 247.204 1499.61 247.204 1504.85 247.204 1509.57 246.673 1513.74 245.608 1517.92 244.545 1521.11 243.482 1523.32 242.418 1525.54 241.355 1526.97 240.823 1527.63 240.823 1528.77 240.823 1529.71 241.231 1530.45 242.05 1531.19 242.869 1531.56 243.932 1531.56 245.241 1531.56 247.859 1529.84 250.231 1526.4 252.358 1519.52 256.449 1510.02 258.494 1497.89 258.494 1481.18 258.494 1467.06 252.849 1455.51 241.559 1443.96 230.269 1438.18 215.462 1438.18 197.136 1438.18 178.974 1443.84 164.208 1455.14 152.836 1466.44 141.464 1480.77 135.779 1498.14 135.779ZM1386.98 135.779C1399.93 135.779 1410.2 139.542 1417.82 147.069 1425.44 154.595 1429.25 165.803 1429.25 180.692L1429.25 250.64C1429.25 254.894 1427.2 257.021 1423.1 257.021 1419.01 257.021 1416.96 254.894 1416.96 250.64L1416.96 181.183C1416.96 169.402 1414.05 160.69 1408.24 155.046 1402.42 149.4 1394.44 146.578 1384.28 146.578 1373.31 146.578 1364.38 150.136 1357.5 157.254 1350.62 164.371 1347.18 173.493 1347.18 184.62L1347.18 250.64C1347.18 254.894 1345.13 257.021 1341.04 257.021 1336.94 257.021 1334.89 254.894 1334.89 250.64L1334.89 143.633C1334.89 139.379 1336.86 137.252 1340.79 137.252 1344.72 137.252 1346.69 139.379 1346.69 143.633L1346.69 159.831C1350.29 152.141 1355.57 146.209 1362.54 142.037 1369.5 137.865 1377.65 135.779 1386.98 135.779ZM1275.12 135.779C1289.54 135.779 1301.33 140.278 1310.51 149.277 1319.68 158.276 1324.27 170.466 1324.27 185.846 1324.27 190.264 1322.55 192.474 1319.11 192.474L1230.9 192.474C1230.73 193.782 1230.65 195.092 1230.65 196.4 1230.65 211.78 1235.24 224.133 1244.41 233.46 1253.58 242.786 1265.13 247.449 1279.05 247.449 1290.52 247.449 1301.33 244.014 1311.49 237.142 1311.98 236.815 1312.68 236.323 1313.58 235.669 1314.48 235.015 1315.18 234.524 1315.67 234.197 1316.16 233.869 1316.73 233.583 1317.39 233.338 1318.04 233.092 1318.62 232.969 1319.11 232.969 1319.93 232.969 1320.66 233.173 1321.32 233.583 1321.97 233.991 1322.42 234.524 1322.67 235.178 1322.92 235.832 1323.04 236.569 1323.04 237.387 1323.04 239.514 1321.89 241.641 1319.6 243.769 1316.32 246.549 1312.51 249.045 1308.17 251.254 1303.83 253.462 1299.04 255.221 1293.8 256.531 1288.56 257.839 1283.31 258.494 1278.07 258.494 1260.38 258.494 1246.01 252.849 1234.95 241.559 1223.89 230.269 1218.36 215.462 1218.36 197.136 1218.36 185.356 1220.9 174.762 1225.98 165.353 1231.06 155.945 1237.9 148.664 1246.5 143.51 1255.1 138.356 1264.64 135.779 1275.12 135.779ZM880.715 135.779C891.034 135.779 900.331 138.233 908.603 143.142 916.875 148.051 923.141 155.167 927.4 164.494L927.4 143.878C927.4 139.46 929.447 137.252 933.544 137.252 937.639 137.252 939.686 139.46 939.686 143.878L939.686 249.904C939.686 254.649 937.639 257.021 933.544 257.021 929.447 257.021 927.4 254.649 927.4 249.904L927.4 228.797C923.141 238.123 916.752 245.404 908.234 250.64 899.716 255.876 890.543 258.494 880.715 258.494 871.213 258.494 862.204 256.121 853.686 251.376 845.167 246.632 838.083 239.474 832.431 229.902 826.779 220.33 823.954 209.325 823.954 196.891 823.954 178.402 829.523 163.594 840.662 152.467 851.801 141.342 865.153 135.779 880.715 135.779ZM1547.82 78.5935C1549.79 78.5935 1551.55 79.0438 1553.1 79.9428 1554.66 80.8428 1555.85 82.1114 1556.67 83.747 1557.49 85.3841 1557.89 87.1019 1557.89 88.902 1557.89 92.0106 1556.95 94.5463 1555.07 96.5097 1553.19 98.4738 1550.77 99.455 1547.82 99.455 1544.54 99.455 1542.01 98.4738 1540.2 96.5097 1538.4 94.5463 1537.5 92.0517 1537.5 89.0242 1537.5 85.9978 1538.4 83.5018 1540.2 81.5387 1542.01 79.5753 1544.54 78.5935 1547.82 78.5935ZM1200.62 78.5935C1202.59 78.5935 1204.35 79.0438 1205.9 79.9428 1207.46 80.8428 1208.65 82.1114 1209.47 83.747 1210.29 85.3841 1210.69 87.1019 1210.69 88.902 1210.69 92.0106 1209.75 94.5463 1207.87 96.5097 1205.99 98.4738 1203.57 99.455 1200.62 99.455 1197.34 99.455 1194.81 98.4738 1193 96.5097 1191.2 94.5463 1190.3 92.0517 1190.3 89.0242 1190.3 85.9978 1191.2 83.5018 1193 81.5387 1194.81 79.5753 1197.34 78.5935 1200.62 78.5935ZM1272.18 71.7217C1275.12 71.7217 1277.58 73.3573 1279.55 76.6301L1301.91 111.481C1302.56 112.463 1302.89 113.445 1302.89 114.427 1302.89 115.572 1302.48 116.472 1301.66 117.126 1300.84 117.78 1299.86 118.108 1298.71 118.108 1296.75 118.108 1295.11 117.126 1293.8 115.163L1272.18 83.2566 1250.31 115.163C1248.83 117.29 1247.03 118.353 1244.9 118.353 1242.44 118.353 1241.21 117.208 1241.21 114.917 1241.21 113.935 1241.46 112.954 1241.95 111.972L1264.8 76.6301C1266.77 73.3573 1269.23 71.7217 1272.18 71.7217ZM1168.11 70.4943C1172.04 70.4943 1174 72.7029 1174 77.1208L1174 250.15C1174 254.894 1172.04 257.266 1168.11 257.266 1164.01 257.266 1161.96 254.894 1161.96 250.15L1161.96 229.043C1157.71 238.205 1151.23 245.404 1142.55 250.64 1133.87 255.876 1124.62 258.494 1114.79 258.494 1109.22 258.494 1103.73 257.594 1098.32 255.794 1092.92 253.994 1087.8 251.376 1082.97 247.94 1078.13 244.504 1073.92 240.333 1070.31 235.424 1066.71 230.514 1063.84 224.747 1061.71 218.121 1059.58 211.494 1058.52 204.417 1058.52 196.891 1058.52 178.239 1064.01 163.39 1074.98 152.345 1085.96 141.301 1099.31 135.779 1115.03 135.779 1125.03 135.779 1134.28 138.233 1142.8 143.142 1151.32 148.051 1157.71 155.086 1161.96 164.249L1161.96 77.1208C1161.96 72.7029 1164.01 70.4943 1168.11 70.4943Z" fill="#444444" fill-rule="evenodd"/></g></svg>